<svg width="40" height="40" viewBox="0 0 40 40" fill="none" xmlns="http://www.w3.org/2000/svg">
<g filter="url(#filter0_d_941_32)">
<circle cx="20" cy="16" r="12" fill="#0075FF"/>
<path d="M16.5 11V16.5M23.5 11V16.5M11 18H28.9333M26.3333 22H29.1667C29.3572 21.6493 29.4582 21.2683 29.4667 20.88C29.4667 20.48 29.4 20.08 29.2667 19.72L27.9333 16.2C27.7779 15.8206 27.5023 15.5204 27.1444 15.3413C26.7865 15.1622 26.3686 15.1131 25.9667 15.2H14.0333C13.6314 15.1131 13.2135 15.1622 12.8556 15.3413C12.4977 15.5204 12.2221 15.8206 12.0667 16.2L10.7333 19.72C10.6 20.08 10.5333 20.48 10.5333 20.88C10.5418 21.2683 10.6428 21.6493 10.8333 22H15.5" stroke="white" stroke-width="1.5" stroke-linecap="round" stroke-linejoin="round"/>
<circle cx="15.5" cy="22" r="1.5" stroke="white" stroke-width="1.5" stroke-linecap="round" stroke-linejoin="round"/>
<circle cx="24.5" cy="22" r="1.5" stroke="white" stroke-width="1.5" stroke-linecap="round" stroke-linejoin="round"/>
</g>
<defs>
<filter id="filter0_d_941_32" x="0" y="0" width="40" height="40" filterUnits="userSpaceOnUse" color-interpolation-filters="sRGB">
<feFlood flood-opacity="0" result="BackgroundImageFix"/>
<feColorMatrix in="SourceAlpha" type="matrix" values="0 0 0 0 0 0 0 0 0 0 0 0 0 0 0 0 0 0 127 0" result="hardAlpha"/>
<feOffset dy="4"/>
<feGaussianBlur stdDeviation="4"/>
<feComposite in2="hardAlpha" operator="out"/>
<feColorMatrix type="matrix" values="0 0 0 0 0 0 0 0 0 0 0 0 0 0 0 0 0 0 0.1 0"/>
<feBlend mode="normal" in2="BackgroundImageFix" result="effect1_dropShadow_941_32"/>
<feBlend mode="normal" in="SourceGraphic" in2="effect1_dropShadow_941_32" result="shape"/>
</filter>
</defs>
</svg>
