<svg xmlns="http://www.w3.org/2000/svg" width="40" height="40" viewBox="0 0 40 40"><g transform="translate(-298 -348)"><g transform="translate(298 348)" fill="hsl(var(--primary))" stroke="hsl(var(--primary-foreground))" stroke-width="2"><path d="M 20 40 C 31.0456950378418 40 40 31.0456950378418 40 20 C 40 8.954304695129395 31.0456950378418 0 20 0 C 8.954304695129395 0 0 8.954304695129395 0 20 C 0 31.0456950378418 8.954304695129395 40 20 40 Z" stroke="none"/><path d="M 20 2 C 30.0192985534668 2 38 9.980701446533203 38 20 C 38 30.0192985534668 30.0192985534668 38 20 38 C 9.980701446533203 38 2 30.0192985534668 2 20 C 2 9.980701446533203 9.980701446533203 2 20 2 M 20 0 C 8.954304695129395 0 0 8.954304695129395 0 20 C 0 31.0456950378418 8.954304695129395 40 20 40 C 31.0456950378418 40 40 31.0456950378418 40 20 C 40 8.954304695129395 31.0456950378418 0 20 0 Z" stroke="none" fill="hsl(var(--primary-foreground))"/></g><g transform="translate(306 356)"><path d="M8,6v6" fill="none" stroke="hsl(var(--primary-foreground))" stroke-linecap="round" stroke-linejoin="round" stroke-width="2"/><path d="M16,6v6" fill="none" stroke="hsl(var(--primary-foreground))" stroke-linecap="round" stroke-linejoin="round" stroke-width="2"/><path d="M2,12H21.6" fill="none" stroke="hsl(var(--primary-foreground))" stroke-linecap="round" stroke-linejoin="round" stroke-width="2"/><path d="M18,18h3s.5-1.7.8-2.8c.1-.4.2-.8.2-1.2,0-.4-.1-.8-.2-1.2L20.4,8C20.1,6.8,19.1,6,18,6H6C4.9,6,3.9,6.8,3.7,7.9l-1.4,5c-.1.4-.2.8-.2,1.2,0,.4.1.8.2,1.2.3,1.1.8,2.8.8,2.8H9" fill="none" stroke="hsl(var(--primary-foreground))" stroke-linecap="round" stroke-linejoin="round" stroke-width="2"/><circle cx="7" cy="18" r="2" fill="none" stroke="hsl(var(--primary-foreground))" stroke-linecap="round" stroke-linejoin="round" stroke-width="2"/><circle cx="17" cy="18" r="2" fill="none" stroke="hsl(var(--primary-foreground))" stroke-linecap="round" stroke-linejoin="round" stroke-width="2"/></g></g></svg>