<svg xmlns="http://www.w3.org/2000/svg" width="32" height="32" viewBox="0 0 32 32"><g transform="translate(-302 -352)"><g transform="translate(302 352)" fill="hsl(var(--accent))" stroke="hsl(var(--accent-foreground))" stroke-width="2"><path d="M 16 32 C 24.83655548095703 32 32 24.83655548095703 32 16 C 32 7.163444042205811 24.83655548095703 0 16 0 C 7.163444042205811 0 0 7.163444042205811 0 16 C 0 24.83655548095703 7.163444042205811 32 16 32 Z" stroke="none"/><path d="M 16 2 C 23.73199844360352 2 30 8.268001556396484 30 16 C 30 23.73199844360352 23.73199844360352 30 16 30 C 8.268001556396484 30 2 23.73199844360352 2 16 C 2 8.268001556396484 8.268001556396484 2 16 2 M 16 0 C 7.163444042205811 0 0 7.163444042205811 0 16 C 0 24.83655548095703 7.163444042205811 32 16 32 C 24.83655548095703 32 32 24.83655548095703 32 16 C 32 7.163444042205811 24.83655548095703 0 16 0 Z" stroke="none" fill="hsl(var(--accent-foreground))"/></g><g transform="translate(306 356)"><path d="M19,21V19a4,4,0,0,0-4-4H9a4,4,0,0,0-4,4v2" fill="none" stroke="hsl(var(--accent-foreground))" stroke-linecap="round" stroke-linejoin="round" stroke-width="2"/><circle cx="12" cy="7" r="4" fill="none" stroke="hsl(var(--accent-foreground))" stroke-linecap="round" stroke-linejoin="round" stroke-width="2"/></g></g></svg>