<svg width="32" height="32" viewBox="0 0 32 32" fill="none" xmlns="http://www.w3.org/2000/svg">
<g filter="url(#filter0_d_941_33)">
<circle cx="16" cy="12" r="8" fill="#FFC700"/>
<path d="M20.6667 17.6667V16.3333C20.6667 15.4493 20.3155 14.6014 19.6904 13.9763C19.0652 13.3512 18.2174 13 17.3333 13H11.6667C10.7826 13 9.93478 13.3512 9.30964 13.9763C8.68452 14.6014 8.33333 15.4493 8.33333 16.3333V17.6667" stroke="#0A0A0A" stroke-width="1.5" stroke-linecap="round" stroke-linejoin="round"/>
<path d="M14.5 10.3333C15.8807 10.3333 17 9.21405 17 7.83333C17 6.45262 15.8807 5.33333 14.5 5.33333C13.1193 5.33333 12 6.45262 12 7.83333C12 9.21405 13.1193 10.3333 14.5 10.3333Z" stroke="#0A0A0A" stroke-width="1.5" stroke-linecap="round" stroke-linejoin="round"/>
</g>
<defs>
<filter id="filter0_d_941_33" x="0" y="0" width="32" height="32" filterUnits="userSpaceOnUse" color-interpolation-filters="sRGB">
<feFlood flood-opacity="0" result="BackgroundImageFix"/>
<feColorMatrix in="SourceAlpha" type="matrix" values="0 0 0 0 0 0 0 0 0 0 0 0 0 0 0 0 0 0 127 0" result="hardAlpha"/>
<feOffset dy="4"/>
<feGaussianBlur stdDeviation="4"/>
<feComposite in2="hardAlpha" operator="out"/>
<feColorMatrix type="matrix" values="0 0 0 0 0 0 0 0 0 0 0 0 0 0 0 0 0 0 0.1 0"/>
<feBlend mode="normal" in2="BackgroundImageFix" result="effect1_dropShadow_941_33"/>
<feBlend mode="normal" in="SourceGraphic" in2="effect1_dropShadow_941_33" result="shape"/>
</filter>
</defs>
</svg>
